<svg width="11" height="7" viewBox="0 0 11 7" fill="none" xmlns="http://www.w3.org/2000/svg">
<path d="M9.99728 1.62198L5.62227 5.99698C5.58164 6.03766 5.53339 6.06993 5.48028 6.09194C5.42717 6.11396 5.37024 6.12529 5.31274 6.12529C5.25525 6.12529 5.19832 6.11396 5.14521 6.09194C5.0921 6.06993 5.04384 6.03766 5.00321 5.99698L0.628212 1.62198C0.546119 1.53989 0.5 1.42855 0.5 1.31245C0.5 1.19635 0.546119 1.08501 0.628212 1.00292C0.710305 0.920825 0.821647 0.874706 0.937743 0.874706C1.05384 0.874706 1.16518 0.920825 1.24727 1.00292L5.31274 5.06893L9.37821 1.00292C9.41886 0.96227 9.46712 0.930026 9.52023 0.908027C9.57334 0.886029 9.63026 0.874706 9.68774 0.874706C9.74523 0.874706 9.80215 0.886029 9.85526 0.908027C9.90837 0.930026 9.95663 0.96227 9.99728 1.00292C10.0379 1.04357 10.0702 1.09182 10.0922 1.14493C10.1142 1.19804 10.1255 1.25496 10.1255 1.31245C10.1255 1.36993 10.1142 1.42686 10.0922 1.47997C10.0702 1.53308 10.0379 1.58133 9.99728 1.62198Z" fill="white"/>
</svg>
