<svg width="18" height="10" viewBox="0 0 18 10" fill="none" xmlns="http://www.w3.org/2000/svg">
<path d="M0.536499 8.2191L8.26338 0.719939C8.33514 0.650215 8.42036 0.594902 8.51417 0.557162C8.60797 0.519423 8.70852 0.5 8.81006 0.5C8.9116 0.5 9.01215 0.519423 9.10595 0.557162C9.19976 0.594902 9.28498 0.650215 9.35674 0.719939L17.0836 8.2191C17.2286 8.35982 17.3101 8.55067 17.3101 8.74967C17.3101 8.94867 17.2286 9.13952 17.0836 9.28023C16.9386 9.42095 16.742 9.5 16.5369 9.5C16.3319 9.5 16.1353 9.42095 15.9903 9.28023L8.81006 2.3107L1.62985 9.28023C1.55806 9.34991 1.47284 9.40518 1.37904 9.44288C1.28524 9.48059 1.1847 9.5 1.08318 9.5C0.981649 9.5 0.881117 9.48059 0.787317 9.44288C0.693518 9.40518 0.60829 9.34991 0.536499 9.28023C0.464708 9.21056 0.407763 9.12784 0.36891 9.03681C0.330057 8.94577 0.310059 8.8482 0.310059 8.74967C0.310059 8.65113 0.330057 8.55356 0.36891 8.46253C0.407763 8.37149 0.464708 8.28878 0.536499 8.2191Z" fill="white"/>
</svg>
